<svg width="46" height="48" viewBox="0 0 46 48" fill="none" xmlns="http://www.w3.org/2000/svg">
<path d="M22.9999 14.2079C26.1624 14.2079 26.5936 14.2079 27.8874 14.2079C29.0374 14.2079 29.6124 14.4959 30.0436 14.6399C30.6186 14.9279 31.0499 15.0719 31.4811 15.5039C31.9124 15.9359 32.1999 16.3679 32.3436 16.9439C32.4874 17.3759 32.6311 17.9519 32.7749 19.1039C32.7749 20.3999 32.7749 20.6879 32.7749 23.9999C32.7749 27.3119 32.7749 27.5999 32.7749 28.8959C32.7749 30.0478 32.4874 30.6238 32.3436 31.0559C32.0561 31.6319 31.9124 32.0639 31.4811 32.4958C31.0499 32.9279 30.6186 33.2159 30.0436 33.3599C29.6124 33.5039 29.0374 33.6478 27.8874 33.7918C26.5936 33.7918 26.3061 33.7918 22.9999 33.7918C19.6936 33.7918 19.4061 33.7918 18.1124 33.7918C16.9624 33.7918 16.3874 33.5039 15.9561 33.3599C15.3811 33.0719 14.9499 32.9279 14.5186 32.4958C14.0874 32.0639 13.7999 31.6319 13.6561 31.0559C13.5124 30.6238 13.3686 30.0478 13.2249 28.8959C13.2249 27.5999 13.2249 27.3119 13.2249 23.9999C13.2249 20.6879 13.2249 20.3999 13.2249 19.1039C13.2249 17.9519 13.5124 17.3759 13.6561 16.9439C13.9436 16.3679 14.0874 15.9359 14.5186 15.5039C14.9499 15.0719 15.3811 14.7839 15.9561 14.6399C16.3874 14.4959 16.9624 14.3519 18.1124 14.2079C19.4061 14.2079 19.8374 14.2079 22.9999 14.2079ZM22.9999 12.0479C19.6936 12.0479 19.4061 12.0479 18.1124 12.0479C16.8186 12.0479 15.9561 12.3359 15.2374 12.6239C14.5186 12.9119 13.7999 13.3439 13.0811 14.0639C12.3624 14.7839 12.0749 15.3599 11.6436 16.2239C11.3561 16.9439 11.2124 17.8079 11.0686 19.1039C11.0686 20.3999 11.0686 20.8319 11.0686 23.9999C11.0686 27.3119 11.0686 27.5999 11.0686 28.8959C11.0686 30.1919 11.3561 31.0559 11.6436 31.7759C11.9311 32.4958 12.3624 33.2159 13.0811 33.9359C13.7999 34.6558 14.3749 34.9438 15.2374 35.3759C15.9561 35.6639 16.8186 35.8078 18.1124 35.9518C19.4061 35.9518 19.8374 35.9518 22.9999 35.9518C26.1624 35.9518 26.5936 35.9518 27.8874 35.9518C29.1811 35.9518 30.0436 35.6639 30.7624 35.3759C31.4811 35.0879 32.1999 34.6558 32.9186 33.9359C33.6374 33.2159 33.9249 32.6399 34.3561 31.7759C34.6436 31.0559 34.7874 30.1919 34.9311 28.8959C34.9311 27.5999 34.9311 27.1679 34.9311 23.9999C34.9311 20.8319 34.9311 20.3999 34.9311 19.1039C34.9311 17.8079 34.6436 16.9439 34.3561 16.2239C34.0686 15.5039 33.6374 14.7839 32.9186 14.0639C32.1999 13.3439 31.6249 13.0559 30.7624 12.6239C30.0436 12.3359 29.1811 12.1919 27.8874 12.0479C26.5936 12.0479 26.3061 12.0479 22.9999 12.0479Z" fill="#E6DAED"/>
<path d="M22.9999 17.8076C19.5499 17.8076 16.8186 20.5436 16.8186 23.9996C16.8186 27.4556 19.5499 30.1916 22.9999 30.1916C26.4499 30.1916 29.1811 27.4556 29.1811 23.9996C29.1811 20.5436 26.4499 17.8076 22.9999 17.8076ZM22.9999 28.0316C20.8436 28.0316 18.9749 26.3036 18.9749 23.9996C18.9749 21.8396 20.6999 19.9676 22.9999 19.9676C25.1561 19.9676 27.0249 21.6956 27.0249 23.9996C27.0249 26.1596 25.1561 28.0316 22.9999 28.0316Z" fill="#E6DAED"/>
<path d="M29.3248 19.1036C30.1187 19.1036 30.7623 18.4589 30.7623 17.6636C30.7623 16.8683 30.1187 16.2236 29.3248 16.2236C28.5309 16.2236 27.8873 16.8683 27.8873 17.6636C27.8873 18.4589 28.5309 19.1036 29.3248 19.1036Z" fill="#E6DAED"/>
</svg>
