<svg width="46" height="48" viewBox="0 0 46 48" fill="none" xmlns="http://www.w3.org/2000/svg">
<path d="M16.675 35.52H11.7875V20.112H16.675V35.52ZM14.2313 17.952C12.65 17.952 11.5 16.8 11.5 15.216C11.5 13.632 12.7938 12.48 14.2313 12.48C15.8125 12.48 16.9625 13.632 16.9625 15.216C16.9625 16.8 15.8125 17.952 14.2313 17.952ZM34.5 35.52H29.6125V27.168C29.6125 24.72 28.6063 24 27.1687 24C25.7312 24 24.2937 25.152 24.2937 27.312V35.52H19.4062V20.112H24.0062V22.272C24.4375 21.264 26.1625 19.68 28.6063 19.68C31.3375 19.68 34.2125 21.264 34.2125 26.016V35.52H34.5Z" fill="#E6DAED"/>
</svg>
