<svg width="47" height="48" viewBox="0 0 47 48" fill="none" xmlns="http://www.w3.org/2000/svg">
<path d="M35.25 16.8001C34.3687 17.2321 33.4875 17.3761 32.4594 17.5201C33.4875 16.9441 34.2219 16.0801 34.5156 14.9281C33.6344 15.5041 32.6062 15.7921 31.4312 16.0801C30.55 15.2161 29.2281 14.6401 27.9062 14.6401C24.8219 14.6401 22.4719 17.5201 23.2063 20.4001C19.2406 20.2561 15.7156 18.3841 13.2188 15.5041C11.8969 17.6641 12.6313 20.4001 14.6875 21.8401C13.9531 21.8401 13.2188 21.5521 12.4844 21.2641C12.4844 23.4241 14.1 25.4401 16.3031 26.0161C15.5687 26.1601 14.8344 26.3041 14.1 26.1601C14.6875 28.0321 16.45 29.4721 18.6531 29.4721C16.8906 30.7681 14.2469 31.4881 11.75 31.2001C13.9531 32.4961 16.45 33.3601 19.0938 33.3601C28.0531 33.3601 33.0469 26.0161 32.7531 19.2481C33.7813 18.6721 34.6625 17.8081 35.25 16.8001Z" fill="#E6DAED"/>
</svg>
